<svg width="2403" height="1417" viewBox="0 0 2403 1417" fill="none" xmlns="http://www.w3.org/2000/svg">
<rect width="2403" height="1417" fill="white"/>
<path d="M1645.83 912.918C1554.62 912.918 1480.41 987.123 1480.41 1078.34C1480.41 1169.55 1554.62 1243.75 1645.83 1243.75C1737.04 1243.75 1811.25 1169.55 1811.25 1078.34C1811.25 987.123 1737.04 912.918 1645.83 912.918ZM1645.83 1177.58C1591.11 1177.58 1546.58 1133.05 1546.58 1078.33C1546.58 1023.61 1591.11 979.082 1645.83 979.082C1700.55 979.082 1745.08 1023.61 1745.08 1078.33C1745.08 1133.05 1700.55 1177.58 1645.83 1177.58Z" fill="black"/>
<path d="M2075.92 866.139L2099.31 889.528C2105.53 895.712 2109 904.148 2108.98 912.918V979.086C2108.98 987.852 2105.51 996.288 2099.29 1002.48L2075.9 1025.87V1078.34C2075.9 1096.6 2061.12 1111.42 2042.82 1111.42H1910.49C1892.19 1111.42 1877.41 1096.6 1877.41 1078.34C1877.41 950.637 1773.49 846.754 1645.82 846.754C1518.16 846.754 1414.24 950.633 1414.24 1078.34C1414.24 1096.6 1399.46 1111.42 1381.16 1111.42H851.828C833.533 1111.42 818.746 1096.6 818.746 1078.34C818.746 950.637 714.832 846.754 587.164 846.754C459.496 846.754 355.582 950.633 355.582 1078.34C355.582 1096.6 340.795 1111.42 322.5 1111.42H190.164C171.869 1111.42 157.082 1096.6 157.082 1078.34V1025.87L133.692 1002.48C127.474 996.288 124 987.852 124 979.086V912.918C124 904.148 127.474 895.712 133.727 889.528L157.877 865.344C167.868 720.97 230.562 648.452 297.986 592.507L526.99 265.378C533.178 256.511 543.3 251.25 554.086 251.25H918V317.418V615.168C918 633.428 903.213 648.25 884.918 648.25H334.476C300.366 677.331 273.108 708.033 253.886 747.5H289.418C307.713 747.5 322.5 762.325 322.5 780.586C322.5 798.846 307.713 813.668 289.418 813.668H231.787C227.488 834.08 224.378 856.179 223.219 881.356C222.82 889.594 219.412 897.402 213.558 903.226L190.168 926.615V965.389L213.558 988.778C219.776 994.966 223.25 1003.4 223.25 1012.17V1045.25H291.271C307.779 896.573 434.156 780.582 587.168 780.582C740.18 780.582 866.557 896.573 883.065 1045.25H1349.94C1366.44 896.573 1492.82 780.582 1645.83 780.582C1798.84 780.582 1925.22 896.573 1941.73 1045.25H2009.75V1012.17C2009.75 1003.4 2013.22 994.966 2019.44 988.778L2042.83 965.389V926.611L2019.44 903.222C2013.22 897.034 2009.75 888.598 2009.75 879.832V813.664H1976.67C1958.37 813.664 1943.59 798.842 1943.59 780.582C1943.59 762.322 1958.37 747.5 1976.67 747.5H2009.75H2075.92V866.139Z" fill="black"/>
<path d="M587.168 912.918C495.959 912.918 421.75 987.123 421.75 1078.34C421.75 1169.55 495.955 1243.75 587.168 1243.75C678.381 1243.75 752.586 1169.55 752.586 1078.33C752.582 987.123 678.377 912.918 587.168 912.918ZM587.168 1177.58C532.449 1177.58 487.918 1133.05 487.918 1078.33C487.918 1023.61 532.449 979.082 587.168 979.082C641.887 979.082 686.418 1023.61 686.418 1078.33C686.418 1133.05 641.887 1177.58 587.168 1177.58Z" fill="black"/>
<path d="M588.575 311H855V585H387L588.575 311Z" fill="white"/>
<path d="M941.903 316V251.305H965.142C973.465 251.305 979.79 252.83 984.115 255.881C988.469 258.932 990.646 263.361 990.646 269.167C990.646 272.514 989.876 275.373 988.336 277.743C986.796 280.112 984.529 281.86 981.538 282.986C984.915 283.875 987.507 285.533 989.313 287.962C991.12 290.391 992.024 293.354 992.024 296.849C992.024 303.188 990.01 307.958 985.981 311.157C981.982 314.326 976.043 315.941 968.163 316H941.903ZM957.499 288.496V304.003H967.719C970.533 304.003 972.695 303.366 974.206 302.092C975.717 300.789 976.472 298.967 976.472 296.627C976.472 291.236 973.791 288.525 968.43 288.496H957.499ZM957.499 278.276H965.63C969.037 278.246 971.466 277.624 972.917 276.41C974.369 275.195 975.095 273.403 975.095 271.033C975.095 268.308 974.31 266.353 972.74 265.168C971.17 263.953 968.637 263.346 965.142 263.346H957.499V278.276ZM1038.3 303.914H1016.93L1013.2 316H996.533L1020.26 251.305H1034.92L1058.83 316H1042.08L1038.3 303.914ZM1020.66 291.873H1034.57L1027.59 269.434L1020.66 291.873ZM1118.57 316H1103.06V288.984H1080.09V316H1064.49V251.305H1080.09V276.987H1103.06V251.305H1118.57V316ZM1178.84 263.346H1159.42V316H1143.83V263.346H1124.77V251.305H1178.84V263.346ZM1217.79 303.914H1196.41L1192.68 316H1176.02L1199.75 251.305H1214.41L1238.32 316H1221.56L1217.79 303.914ZM1200.15 291.873H1214.06L1207.08 269.434L1200.15 291.873ZM1302.85 290.717H1294.95V316H1279.44V290.717H1271.4L1258.95 316H1239.58L1259.09 280.675L1240.16 251.305H1259.84L1273.08 276.676H1279.44V251.305H1294.95V276.676H1301.26L1313.92 251.305H1333.56L1315.12 280.586L1334.22 316H1314.76L1302.85 290.717ZM1393.88 316H1378.37V288.984H1355.4V316H1339.8V251.305H1355.4V276.987H1378.37V251.305H1393.88V316ZM1421.31 316H1405.76V251.305H1421.31V316ZM1510.98 316H1495.38V263.346H1472.14V316H1456.55V251.305H1510.98V316ZM1561.74 288.584H1537.22V304.003H1566.19V316H1521.62V251.305H1566.27V263.346H1537.22V276.987H1561.74V288.584ZM1589.05 294.05V316H1573.45V251.305H1599.27C1604.21 251.305 1608.58 252.223 1612.37 254.06C1616.2 255.867 1619.14 258.458 1621.22 261.835C1623.32 265.183 1624.37 268.989 1624.37 273.255C1624.37 279.564 1622.1 284.615 1617.57 288.407C1613.07 292.169 1606.88 294.05 1599 294.05H1589.05ZM1589.05 282.008H1599.27C1602.29 282.008 1604.58 281.253 1606.15 279.742C1607.75 278.231 1608.55 276.099 1608.55 273.344C1608.55 270.322 1607.74 267.908 1606.11 266.101C1604.48 264.294 1602.26 263.376 1599.44 263.346H1589.05V282.008ZM1673.76 288.584H1649.23V304.003H1678.2V316H1633.63V251.305H1678.29V263.346H1649.23V276.987H1673.76V288.584ZM1685.47 316V251.305H1708.7C1717.03 251.305 1723.35 252.83 1727.68 255.881C1732.03 258.932 1734.21 263.361 1734.21 269.167C1734.21 272.514 1733.44 275.373 1731.9 277.743C1730.36 280.112 1728.09 281.86 1725.1 282.986C1728.48 283.875 1731.07 285.533 1732.88 287.962C1734.68 290.391 1735.59 293.354 1735.59 296.849C1735.59 303.188 1733.57 307.958 1729.54 311.157C1725.54 314.326 1719.61 315.941 1711.73 316H1685.47ZM1701.06 288.496V304.003H1711.28C1714.1 304.003 1716.26 303.366 1717.77 302.092C1719.28 300.789 1720.03 298.967 1720.03 296.627C1720.03 291.236 1717.35 288.525 1711.99 288.496H1701.06ZM1701.06 278.276H1709.19C1712.6 278.246 1715.03 277.624 1716.48 276.41C1717.93 275.195 1718.66 273.403 1718.66 271.033C1718.66 268.308 1717.87 266.353 1716.3 265.168C1714.73 263.953 1712.2 263.346 1708.7 263.346H1701.06V278.276ZM1785.24 288.584H1760.71V304.003H1789.68V316H1745.12V251.305H1789.77V263.346H1760.71V276.987H1785.24V288.584ZM1828.45 269.256C1828.45 267.212 1827.65 265.568 1826.05 264.324C1824.48 263.08 1822.35 262.458 1819.65 262.458C1817.14 262.458 1815.11 263.065 1813.57 264.279C1812.05 265.464 1811.3 267.034 1811.3 268.989H1795.75C1795.75 265.435 1796.75 262.25 1798.77 259.436C1800.81 256.622 1803.69 254.43 1807.39 252.86C1811.09 251.26 1815.18 250.46 1819.65 250.46C1827.35 250.46 1833.34 252.075 1837.6 255.304C1841.9 258.533 1844.05 263.05 1844.05 268.856C1844.05 271.818 1843.17 274.529 1841.43 276.987C1839.71 279.416 1837.32 281.342 1834.27 282.764C1837.77 284.008 1840.43 285.904 1842.27 288.451C1844.14 290.969 1845.07 294.109 1845.07 297.871C1845.07 303.677 1842.76 308.298 1838.14 311.734C1833.52 315.141 1827.35 316.844 1819.65 316.844C1812.51 316.844 1806.59 315.171 1801.88 311.823C1797.17 308.446 1794.81 303.855 1794.81 298.049H1810.46C1810.46 299.974 1811.31 301.604 1813.03 302.937C1814.75 304.24 1816.96 304.892 1819.65 304.892C1822.56 304.892 1824.91 304.21 1826.72 302.848C1828.52 301.485 1829.43 299.708 1829.43 297.516C1829.43 294.316 1828.66 292.065 1827.12 290.762C1825.58 289.429 1823.33 288.762 1820.36 288.762H1812.05V277.209H1820.9C1825.93 277.061 1828.45 274.41 1828.45 269.256ZM1895.3 288.584H1870.77V304.003H1899.74V316H1855.18V251.305H1899.83V263.346H1870.77V276.987H1895.3V288.584ZM1961.08 316H1945.58V288.984H1922.6V316H1907.01V251.305H1922.6V276.987H1945.58V251.305H1961.08V316ZM2025.98 316H2010.47V288.984H1987.5V316H1971.9V251.305H1987.5V276.987H2010.47V251.305H2025.98V316ZM2064.66 316V293.294H2055.68L2044.75 316H2027.82L2041.11 288.007C2035.33 284.245 2032.44 278.72 2032.44 271.433C2032.44 265.035 2034.55 260.088 2038.75 256.592C2042.96 253.067 2049.02 251.305 2056.92 251.305H2080.3V316H2064.66ZM2047.99 272.811C2047.99 276.099 2048.66 278.483 2049.99 279.964C2051.33 281.445 2053.56 282.186 2056.7 282.186H2064.66V263.346H2056.79C2053.68 263.346 2051.43 264.161 2050.04 265.79C2048.67 267.39 2047.99 269.73 2047.99 272.811Z" fill="black"/>
<path d="M1742.4 645.5C1728.6 645.5 1715.4 643.1 1702.8 638.3C1690.4 633.3 1679.4 626.1 1669.8 616.7C1660.2 607.1 1652.6 595.6 1647 582.2C1641.6 568.6 1638.9 553.1 1638.9 535.7C1638.9 520.7 1641.7 506.8 1647.3 494C1652.9 481.2 1660.6 470 1670.4 460.4C1680.4 450.6 1692 443 1705.2 437.6C1718.4 432.2 1732.7 429.5 1748.1 429.5C1767.3 429.5 1784.7 433.7 1800.3 442.1C1815.9 450.3 1827.5 461.6 1835.1 476L1791.6 509.3C1787.4 500.9 1781.1 494.2 1772.7 489.2C1764.3 484 1755.4 481.4 1746 481.4C1736.8 481.4 1728.6 483.8 1721.4 488.6C1714.2 493.4 1708.5 500.1 1704.3 508.7C1700.3 517.1 1698.3 526.8 1698.3 537.8C1698.3 554.4 1702.8 567.9 1711.8 578.3C1721 588.5 1732.9 593.6 1747.5 593.6C1764.1 593.6 1779.1 586.6 1792.5 572.6H1755.6V530.6H1843.2V644H1794.9V626.3C1779.7 639.1 1762.2 645.5 1742.4 645.5ZM1968.08 645.8C1951.88 645.8 1937.18 642.8 1923.98 636.8C1910.78 630.6 1899.38 622.4 1889.78 612.2C1880.38 601.8 1873.08 590.2 1867.88 577.4C1862.88 564.4 1860.38 551 1860.38 537.2C1860.38 523 1863.08 509.5 1868.48 496.7C1873.88 483.9 1881.38 472.5 1890.98 462.5C1900.78 452.3 1912.28 444.3 1925.48 438.5C1938.88 432.7 1953.48 429.8 1969.28 429.8C1985.48 429.8 2000.18 432.9 2013.38 439.1C2026.58 445.1 2037.88 453.3 2047.28 463.7C2056.68 474.1 2063.88 485.8 2068.88 498.8C2074.08 511.6 2076.68 524.8 2076.68 538.4C2076.68 552.4 2073.98 565.8 2068.58 578.6C2063.38 591.4 2055.88 602.9 2046.08 613.1C2036.48 623.1 2025.08 631.1 2011.88 637.1C1998.68 642.9 1984.08 645.8 1968.08 645.8ZM1919.78 537.8C1919.78 547.2 1921.48 556.2 1924.88 564.8C1928.48 573.4 1933.88 580.4 1941.08 585.8C1948.48 591.2 1957.68 593.9 1968.68 593.9C1980.08 593.9 1989.28 591.1 1996.28 585.5C2003.48 579.9 2008.78 572.8 2012.18 564.2C2015.58 555.4 2017.28 546.4 2017.28 537.2C2017.28 527.6 2015.48 518.6 2011.88 510.2C2008.28 501.8 2002.88 495 1995.68 489.8C1988.48 484.4 1979.38 481.7 1968.38 481.7C1957.18 481.7 1947.98 484.5 1940.78 490.1C1933.58 495.5 1928.28 502.5 1924.88 511.1C1921.48 519.5 1919.78 528.4 1919.78 537.8Z" fill="#FF8412"/>
<path d="M943.6 535.7C943.6 522.7 946 510 950.8 497.6C955.8 485 963 473.6 972.4 463.4C981.8 453.2 993.2 445.1 1006.6 439.1C1020.2 432.9 1035.5 429.8 1052.5 429.8C1072.9 429.8 1090.7 434.1 1105.9 442.7C1121.1 451.1 1132.4 462.3 1139.8 476.3L1095.1 508.1C1092.5 501.1 1088.7 495.7 1083.7 491.9C1078.9 488.1 1073.6 485.5 1067.8 484.1C1062.2 482.5 1056.7 481.7 1051.3 481.7C1040.1 481.7 1030.9 484.5 1023.7 490.1C1016.7 495.7 1011.5 502.8 1008.1 511.4C1004.7 519.8 1003 528.5 1003 537.5C1003 547.3 1004.9 556.5 1008.7 565.1C1012.7 573.7 1018.3 580.7 1025.5 586.1C1032.9 591.3 1041.7 593.9 1051.9 593.9C1057.3 593.9 1062.8 593.1 1068.4 591.5C1074 589.7 1079.1 586.9 1083.7 583.1C1088.3 579.3 1091.8 574.2 1094.2 567.8L1141.9 596.3C1137.7 606.7 1130.7 615.6 1120.9 623C1111.1 630.4 1100 636.1 1087.6 640.1C1075.2 643.9 1062.9 645.8 1050.7 645.8C1034.9 645.8 1020.4 642.7 1007.2 636.5C994.2 630.1 982.9 621.7 973.3 611.3C963.9 600.7 956.6 588.9 951.4 575.9C946.2 562.7 943.6 549.3 943.6 535.7ZM1208.7 431H1274.1L1341.9 644H1282.5L1269.6 602.3H1212.9L1200.3 644H1140.6L1208.7 431ZM1260.3 563.3L1241.4 488.3L1221.6 563.3H1260.3ZM1418.1 539.3V644H1359.6V431H1405.2L1490.7 539.3V431H1549.2V644H1502.7L1418.1 539.3Z" fill="#FF8412"/>
</svg>
